<svg width="161" height="53" viewBox="0 0 161 53" fill="none" xmlns="http://www.w3.org/2000/svg">
<g clip-path="url(#clip0_2_2)">
<path d="M14.8295 46.5114C12.1364 46.5114 9.81818 45.9659 7.875 44.875C5.94318 43.7727 4.45455 42.2159 3.40909 40.2045C2.36364 38.1818 1.84091 35.7898 1.84091 33.0284C1.84091 30.3352 2.36364 27.9716 3.40909 25.9375C4.45455 23.9034 5.92614 22.3182 7.82386 21.1818C9.73295 20.0455 11.9716 19.4773 14.5398 19.4773C16.267 19.4773 17.875 19.7557 19.3636 20.3125C20.8636 20.858 22.1705 21.6818 23.2841 22.7841C24.4091 23.8864 25.2841 25.2727 25.9091 26.9432C26.5341 28.6023 26.8466 30.5455 26.8466 32.7727V34.767H4.73864V30.267H20.0114C20.0114 29.2216 19.7841 28.2955 19.3295 27.4886C18.875 26.6818 18.2443 26.0511 17.4375 25.5966C16.642 25.1307 15.7159 24.8977 14.6591 24.8977C13.5568 24.8977 12.5795 25.1534 11.7273 25.6648C10.8864 26.1648 10.2273 26.8409 9.75 27.6932C9.27273 28.5341 9.02841 29.4716 9.01705 30.5057V34.7841C9.01705 36.0795 9.25568 37.1989 9.73295 38.142C10.2216 39.0852 10.9091 39.8125 11.7955 40.3239C12.6818 40.8352 13.733 41.0909 14.9489 41.0909C15.7557 41.0909 16.4943 40.9773 17.1648 40.75C17.8352 40.5227 18.4091 40.1818 18.8864 39.7273C19.3636 39.2727 19.7273 38.7159 19.9773 38.0568L26.6932 38.5C26.3523 40.1136 25.6534 41.5227 24.5966 42.7273C23.5511 43.9205 22.1989 44.8523 20.5398 45.5227C18.892 46.1818 16.9886 46.5114 14.8295 46.5114ZM31.5852 46V19.8182H38.5057V24.4375H38.8125C39.358 22.9034 40.267 21.6932 41.5398 20.8068C42.8125 19.9205 44.3352 19.4773 46.108 19.4773C47.9034 19.4773 49.4318 19.9261 50.6932 20.8239C51.9545 21.7102 52.7955 22.9148 53.2159 24.4375H53.4886C54.0227 22.9375 54.9886 21.7386 56.3864 20.8409C57.7955 19.9318 59.4602 19.4773 61.3807 19.4773C63.8239 19.4773 65.8068 20.2557 67.3295 21.8125C68.8636 23.358 69.6307 25.5511 69.6307 28.392V46H62.3864V29.8239C62.3864 28.3693 62 27.2784 61.2273 26.5511C60.4545 25.8239 59.4886 25.4602 58.3295 25.4602C57.0114 25.4602 55.983 25.8807 55.2443 26.7216C54.5057 27.5511 54.1364 28.6477 54.1364 30.0114V46H47.0966V29.6705C47.0966 28.3864 46.7273 27.3636 45.9886 26.6023C45.2614 25.8409 44.3011 25.4602 43.108 25.4602C42.3011 25.4602 41.5739 25.6648 40.9261 26.0739C40.2898 26.4716 39.7841 27.0341 39.4091 27.7614C39.0341 28.4773 38.8466 29.3182 38.8466 30.2841V46H31.5852ZM75.3665 46V19.8182H82.6278V46H75.3665ZM79.0142 16.4432C77.9347 16.4432 77.0085 16.0852 76.2358 15.3693C75.4744 14.642 75.0938 13.7727 75.0938 12.7614C75.0938 11.7614 75.4744 10.9034 76.2358 10.1875C77.0085 9.46023 77.9347 9.09659 79.0142 9.09659C80.0938 9.09659 81.0142 9.46023 81.7756 10.1875C82.5483 10.9034 82.9347 11.7614 82.9347 12.7614C82.9347 13.7727 82.5483 14.642 81.7756 15.3693C81.0142 16.0852 80.0938 16.4432 79.0142 16.4432ZM95.706 30.8636V46H88.4446V19.8182H95.3651V24.4375H95.6719C96.2514 22.9148 97.223 21.7102 98.5866 20.8239C99.9503 19.9261 101.604 19.4773 103.547 19.4773C105.365 19.4773 106.95 19.875 108.303 20.6705C109.655 21.4659 110.706 22.6023 111.456 24.0795C112.206 25.5455 112.581 27.2955 112.581 29.3295V46H105.32V30.625C105.331 29.0227 104.922 27.7727 104.092 26.875C103.263 25.9659 102.121 25.5114 100.666 25.5114C99.6889 25.5114 98.8253 25.7216 98.0753 26.142C97.3366 26.5625 96.7571 27.1761 96.3366 27.983C95.9276 28.7784 95.7173 29.7386 95.706 30.8636Z" fill="white"/>
<path d="M130.236 46.5114C127.543 46.5114 125.224 45.9659 123.281 44.875C121.349 43.7727 119.861 42.2159 118.815 40.2045C117.77 38.1818 117.247 35.7898 117.247 33.0284C117.247 30.3352 117.77 27.9716 118.815 25.9375C119.861 23.9034 121.332 22.3182 123.23 21.1818C125.139 20.0455 127.378 19.4773 129.946 19.4773C131.673 19.4773 133.281 19.7557 134.77 20.3125C136.27 20.858 137.577 21.6818 138.69 22.7841C139.815 23.8864 140.69 25.2727 141.315 26.9432C141.94 28.6023 142.253 30.5455 142.253 32.7727V34.767H120.145V30.267H135.418C135.418 29.2216 135.19 28.2955 134.736 27.4886C134.281 26.6818 133.651 26.0511 132.844 25.5966C132.048 25.1307 131.122 24.8977 130.065 24.8977C128.963 24.8977 127.986 25.1534 127.134 25.6648C126.293 26.1648 125.634 26.8409 125.156 27.6932C124.679 28.5341 124.435 29.4716 124.423 30.5057V34.7841C124.423 36.0795 124.662 37.1989 125.139 38.142C125.628 39.0852 126.315 39.8125 127.202 40.3239C128.088 40.8352 129.139 41.0909 130.355 41.0909C131.162 41.0909 131.901 40.9773 132.571 40.75C133.241 40.5227 133.815 40.1818 134.293 39.7273C134.77 39.2727 135.134 38.7159 135.384 38.0568L142.099 38.5C141.759 40.1136 141.06 41.5227 140.003 42.7273C138.957 43.9205 137.605 44.8523 135.946 45.5227C134.298 46.1818 132.395 46.5114 130.236 46.5114ZM127.168 16.4432L130.781 8.6875H137.497L132.298 16.4432H127.168ZM151.236 46.4432C150.111 46.4432 149.145 46.0455 148.338 45.25C147.543 44.4432 147.145 43.4773 147.145 42.3523C147.145 41.2386 147.543 40.2841 148.338 39.4886C149.145 38.6932 150.111 38.2955 151.236 38.2955C152.327 38.2955 153.281 38.6932 154.099 39.4886C154.918 40.2841 155.327 41.2386 155.327 42.3523C155.327 43.1023 155.134 43.7898 154.747 44.4148C154.372 45.0284 153.878 45.5227 153.264 45.8977C152.651 46.2614 151.974 46.4432 151.236 46.4432Z" fill="#885424"/>
</g>
<defs>
<clipPath id="clip0_2_2">
<rect width="161" height="53" fill="white"/>
</clipPath>
</defs>
</svg>
